<svg width="261" height="160" viewBox="0 0 261 160" fill="none" xmlns="http://www.w3.org/2000/svg">
<path d="M78.8297 0.335429C51.2297 2.73543 39.6631 32.6688 37.3297 47.3354C23.4964 51.0021 -3.27027 64.9354 0.329731 91.3354C3.92973 117.735 25.1631 125.669 35.3297 126.335C65.6631 126.502 131.53 126.935 152.33 127.335C173.13 127.735 184.996 122.835 188.33 120.335C221.13 95.1355 201.996 65.8354 188.33 54.3354C175.83 19.8354 145.33 22.3354 137.33 23.3354C130.93 24.1354 123.33 18.0021 120.33 14.8354C117.996 9.0021 106.43 -2.06457 78.8297 0.335429Z" fill="#43C2E3"/>
<path d="M152.206 46.3002C128.676 48.4485 118.815 75.2422 116.825 88.3705C105.032 91.6525 82.2119 104.124 85.2811 127.755C88.3503 151.386 106.453 158.487 115.12 159.084C140.981 159.233 197.135 159.621 214.868 159.979C232.601 160.337 242.718 155.951 245.56 153.714C273.523 131.157 257.211 104.93 245.56 94.6363C234.903 63.7549 208.9 65.9927 202.08 66.8878C196.624 67.6039 190.144 62.1139 187.587 59.2794C185.597 54.0579 175.736 44.152 152.206 46.3002Z" fill="#3591A6"/>
</svg>
