<svg width="227" height="228" viewBox="0 0 227 228" fill="none" xmlns="http://www.w3.org/2000/svg">
<circle cx="113" cy="114" r="58" fill="#E5C705"/>
<rect x="106" width="13" height="37" rx="6.5" fill="#E5C705"/>
<rect x="106" y="191" width="13" height="37" rx="6.5" fill="#E5C705"/>
<rect x="163.618" y="10.8584" width="13" height="37" rx="6.5" transform="rotate(29.3628 163.618 10.8584)" fill="#E5C705"/>
<rect width="13" height="37" rx="6.5" transform="matrix(-0.871533 0.490338 0.490338 0.871533 62.3298 12)" fill="#E5C705"/>
<rect width="13" height="37" rx="6.5" transform="matrix(-0.871533 0.490338 0.490338 0.871533 157.33 177)" fill="#E5C705"/>
<rect x="69.1426" y="178" width="13" height="37" rx="6.5" transform="rotate(29.3628 69.1426 178)" fill="#E5C705"/>
<rect x="207.999" y="51" width="13" height="37" rx="6.5" transform="rotate(59.864 207.999 51)" fill="#E5C705"/>
<rect width="13" height="37" rx="6.5" transform="matrix(0.502054 -0.864836 -0.864836 -0.502054 43.999 80.8188)" fill="#E5C705"/>
<rect width="13" height="37" rx="6.5" transform="matrix(0.502054 -0.864836 -0.864836 -0.502054 206.999 174.819)" fill="#E5C705"/>
<rect x="43.999" y="145" width="13" height="37" rx="6.5" transform="rotate(59.864 43.999 145)" fill="#E5C705"/>
<rect x="226" y="106" width="13" height="37" rx="6.5" transform="rotate(89.869 226 106)" fill="#E5C705"/>
<rect x="37" y="106" width="13" height="37" rx="6.5" transform="rotate(89.869 37 106)" fill="#E5C705"/>
</svg>
