<svg width="250" height="175" viewBox="0 0 250 175" fill="none" xmlns="http://www.w3.org/2000/svg">
<path d="M68.5 25.6013V5.60133C70 1.60134 71 1.10133 75.5 0.101329C79.1 -0.698671 81.3333 3.43466 82 5.60133V25.6013C81 27.1013 79.5 29.6013 75.5 30.1013C72.3 30.5013 69.5 27.268 68.5 25.6013Z" fill="#E5C705"/>
<path d="M94.2894 28.1991L104.388 10.9361C107.703 8.24094 108.819 8.3143 113.208 9.72342C116.719 10.8507 116.56 15.5461 116.041 17.7529L105.942 35.0159C104.321 35.8057 101.764 37.2061 98.0592 35.6179C95.0952 34.3473 94.311 30.1426 94.2894 28.1991Z" fill="#E5C705"/>
<path d="M59.9999 49.6013C71.1999 41.6013 85.6666 46.268 91.4999 49.6013C77.4999 54.8013 71.6666 77.1013 70.5 87.6013C63.7 86.8013 56.3333 92.6013 53.4999 95.6013C46.2999 90.8013 45.4999 77.268 45.9999 71.1013C45.9999 67.268 48.7999 57.6013 59.9999 49.6013Z" fill="#E5C705"/>
<path d="M45.1308 35.0429L35.6541 17.4307C35.0797 13.1975 35.7234 12.2833 39.2123 9.27044C42.0035 6.86015 45.9287 9.44179 47.5424 11.0339L57.0191 28.6462C56.8492 30.4409 56.7129 33.3532 53.4273 35.6889C50.7989 37.5574 46.8011 36.0368 45.1308 35.0429Z" fill="#E5C705"/>
<path d="M29.2245 56.5289L11.8625 46.601C9.13471 43.3133 9.19704 42.197 10.5627 37.7942C11.6552 34.2719 16.352 34.3849 18.5638 34.8817L35.9258 44.8095C36.7315 46.4222 38.1572 48.9654 36.6057 52.6859C35.3644 55.6624 31.1677 56.4881 29.2245 56.5289Z" fill="#E5C705"/>
<path d="M34.9411 107.132L17.351 116.65C13.1191 117.234 12.2035 116.593 9.18245 113.111C6.76564 110.325 9.33811 106.394 10.9264 104.777L28.5165 95.2589C30.3117 95.4246 33.2243 95.5541 35.5676 98.8342C37.4422 101.458 35.931 105.46 34.9411 107.132Z" fill="#E5C705"/>
<path d="M25.6013 82.6013H5.60133C1.60134 81.1013 1.10133 80.1013 0.101329 75.6013C-0.698671 72.0013 3.43466 69.768 5.60133 69.1013H25.6013C27.1013 70.1013 29.6013 71.6013 30.1013 75.6013C30.5013 78.8013 27.268 81.6013 25.6013 82.6013Z" fill="#E5C705"/>
<path d="M121.83 47.4367C94.2297 49.8367 82.6631 79.7701 80.3297 94.4367C66.4964 98.1034 39.7297 112.037 43.3297 138.437C46.9297 164.837 68.1631 172.77 78.3297 173.437C108.663 173.603 174.53 174.037 195.33 174.437C216.13 174.837 227.996 169.937 231.33 167.437C264.13 142.237 244.996 112.937 231.33 101.437C218.83 66.9368 188.33 69.4368 180.33 70.4368C173.93 71.2368 166.33 65.1034 163.33 61.9367C160.996 56.1034 149.43 45.0367 121.83 47.4367Z" fill="#43C2E3"/>
</svg>
