<svg width="216" height="129" viewBox="0 0 216 129" fill="none" xmlns="http://www.w3.org/2000/svg">
<path d="M55.7505 0.237037C36.231 1.93304 28.0508 23.0859 26.4006 33.4504C16.6173 36.0415 -2.31282 45.8877 0.233195 64.5437C2.77921 83.1997 17.796 88.8059 24.9861 89.277C46.4386 89.3948 93.0213 89.701 107.732 89.9837C122.442 90.2664 130.834 86.8037 133.192 85.037C156.389 67.229 142.857 46.5237 133.192 38.397C124.351 14.017 102.781 15.7837 97.1232 16.4904C92.5969 17.0557 87.222 12.7215 85.1003 10.4837C83.4501 6.36148 75.2699 -1.45896 55.7505 0.237037Z" fill="#43C2E3"/>
<path d="M125.75 39.237C106.231 40.933 98.0508 62.0859 96.4006 72.4504C86.6173 75.0415 67.6872 84.8877 70.2332 103.544C72.7792 122.2 87.796 127.806 94.9861 128.277C116.439 128.395 163.021 128.701 177.732 128.984C192.442 129.266 200.834 125.804 203.192 124.037C226.389 106.229 212.857 85.5237 203.192 77.397C194.351 53.017 172.781 54.7837 167.123 55.4904C162.597 56.0557 157.222 51.7215 155.1 49.4837C153.45 45.3615 145.27 37.541 125.75 39.237Z" fill="#91CBDA"/>
</svg>
