<svg width="207" height="212" viewBox="0 0 207 212" fill="none" xmlns="http://www.w3.org/2000/svg">
<path d="M78.8297 0.335429C51.2297 2.73543 39.6631 32.6688 37.3297 47.3354C23.4964 51.0021 -3.27027 64.9354 0.329731 91.3354C3.92973 117.735 25.1631 125.669 35.3297 126.335C65.6631 126.502 131.53 126.935 152.33 127.335C173.13 127.735 184.996 122.835 188.33 120.335C221.13 95.1355 201.996 65.8354 188.33 54.3354C175.83 19.8354 145.33 22.3354 137.33 23.3354C130.93 24.1354 123.33 18.0021 120.33 14.8354C117.996 9.0021 106.43 -2.06457 78.8297 0.335429Z" fill="#3591A6"/>
<rect x="52" y="149.5" width="13" height="36.9539" rx="6.5" transform="rotate(-15.618 52 149.5)" fill="#44C1E2"/>
<rect x="103" y="149.5" width="13" height="36.9539" rx="6.5" transform="rotate(-15.618 103 149.5)" fill="#44C1E2"/>
<rect x="153" y="149.5" width="13" height="36.9539" rx="6.5" transform="rotate(-15.618 153 149.5)" fill="#44C1E2"/>
<rect x="136" y="175.899" width="13" height="36.9539" rx="6.5" transform="rotate(-17.4522 136 175.899)" fill="#44C1E2"/>
<rect x="81" y="175.5" width="13" height="36.9539" rx="6.5" transform="rotate(-15.618 81 175.5)" fill="#44C1E2"/>
</svg>
