<svg width="207" height="187" viewBox="0 0 207 187" fill="none" xmlns="http://www.w3.org/2000/svg">
<path d="M78.8297 0.335429C51.2297 2.73543 39.6631 32.6688 37.3297 47.3354C23.4964 51.0021 -3.27027 64.9354 0.329731 91.3354C3.92973 117.735 25.1631 125.669 35.3297 126.335C65.6631 126.502 131.53 126.935 152.33 127.335C173.13 127.735 184.996 122.835 188.33 120.335C221.13 95.1355 201.996 65.8354 188.33 54.3354C175.83 19.8354 145.33 22.3354 137.33 23.3354C130.93 24.1354 123.33 18.0021 120.33 14.8354C117.996 9.0021 106.43 -2.06457 78.8297 0.335429Z" fill="#43C2E3"/>
<rect x="68.0789" y="152" width="11.8792" height="25" rx="5.93962" transform="rotate(74.3981 68.0789 152)" fill="#46C2E6"/>
<rect width="11.8792" height="25" rx="5.93962" transform="matrix(-0.268951 0.963154 0.963154 0.268951 28.1948 152)" fill="#46C2E6"/>
<rect width="11.8792" height="25" rx="5.93962" transform="matrix(0.815024 0.579427 0.579427 -0.815024 30 179.376)" fill="#46C2E6"/>
<rect x="66.1675" y="179.376" width="11.8792" height="25" rx="5.93962" transform="rotate(144.59 66.1675 179.376)" fill="#46C2E6"/>
<rect x="53.8789" y="168.09" width="11.8792" height="25" rx="5.93962" transform="rotate(-179.565 53.8789 168.09)" fill="#46C2E6"/>
<rect x="137.079" y="152" width="11.8792" height="25" rx="5.93962" transform="rotate(74.3981 137.079 152)" fill="#46C2E6"/>
<rect width="11.8792" height="25" rx="5.93962" transform="matrix(-0.268951 0.963154 0.963154 0.268951 97.1948 152)" fill="#46C2E6"/>
<rect width="11.8792" height="25" rx="5.93962" transform="matrix(0.815024 0.579427 0.579427 -0.815024 99 179.376)" fill="#46C2E6"/>
<rect x="135.167" y="179.376" width="11.8792" height="25" rx="5.93962" transform="rotate(144.59 135.167 179.376)" fill="#46C2E6"/>
<rect x="122.879" y="168.09" width="11.8792" height="25" rx="5.93962" transform="rotate(-179.565 122.879 168.09)" fill="#46C2E6"/>
<rect x="203.079" y="152" width="11.8792" height="25" rx="5.93962" transform="rotate(74.3981 203.079 152)" fill="#46C2E6"/>
<rect width="11.8792" height="25" rx="5.93962" transform="matrix(-0.268951 0.963154 0.963154 0.268951 163.195 152)" fill="#46C2E6"/>
<rect width="11.8792" height="25" rx="5.93962" transform="matrix(0.815024 0.579427 0.579427 -0.815024 165 179.376)" fill="#46C2E6"/>
<rect x="201.167" y="179.376" width="11.8792" height="25" rx="5.93962" transform="rotate(144.59 201.167 179.376)" fill="#46C2E6"/>
<rect x="188.879" y="168.09" width="11.8792" height="25" rx="5.93962" transform="rotate(-179.565 188.879 168.09)" fill="#46C2E6"/>
</svg>
